# xmcd
#
# Track frame offsets:
#	150
#	18297
#	31457
#	46590
#	58310
#	71425
#	93466
#	106266
#	124123
#	136731
#	147035
#	165140
#
# Disc length: 2344 seconds
#
# Revision: 1
# Processed by: cddbd v1.5.2PL0 Copyright (c) Steve Scherf et al.
# Submitted via: audiograbber 1.83.01
#
DISCID=9309260c
DTITLE=Diamond Rio - The Star Still Shines
DYEAR=2007
DGENRE=Country
TTITLE0=The Star Still Shines
TTITLE1=Winter Wonderland
TTITLE2=The Christmas Song (Chestnuts
TTITLE3=Let It Snow, Let It Snow, Let
TTITLE4=O Come, O Come Emmanuel
TTITLE5=Sleigh Ride
TTITLE6=Christmas Time Is Here
TTITLE7=I'll Be Home For Christmas
TTITLE8=Christmas Times A Comin'
TTITLE9=Hark! The Herald Angels Sing
TTITLE10=Have Yourself A Merry Little C
TTITLE11=Christmas Is Coming [Instrumen
EXTD=
EXTT0=
EXTT1=
EXTT2=
EXTT3=
EXTT4=
EXTT5=
EXTT6=
EXTT7=
EXTT8=
EXTT9=
EXTT10=
EXTT11=
PLAYORDER=
